<?xml version="1.0" encoding="utf-8"?>
<!-- Generator: Adobe Illustrator 24.3.0, SVG Export Plug-In . SVG Version: 6.00 Build 0)  -->
<svg version="1.1" id="Layer_1" xmlns="http://www.w3.org/2000/svg" xmlns:xlink="http://www.w3.org/1999/xlink" x="0px" y="0px"
	 viewBox="0 0 436 188.3" style="enable-background:new 0 0 436 188.3;" xml:space="preserve">
<style type="text/css">
	.st0{fill-rule:evenodd;clip-rule:evenodd;fill:#E21A20;}
	.st1{fill-rule:evenodd;clip-rule:evenodd;fill:#ED1C24;}
	.st2{fill-rule:evenodd;clip-rule:evenodd;fill:#8DC63F;}
	.st3{fill-rule:evenodd;clip-rule:evenodd;fill:#27AAE1;}
	.st4{fill-rule:evenodd;clip-rule:evenodd;fill:#F4CD0B;}
	.st5{fill-rule:evenodd;clip-rule:evenodd;fill:#F7941E;}
	.st6{fill:#686868;}
	.st7{fill:#ED1C24;}
	.st8{fill:#F4CD0B;}
	.st9{fill:#F7941E;}
	.st10{fill:#8DC63F;}
	.st11{fill:#27AAE1;}
</style>
<g>
	<g>
		<path class="st0" d="M377.9,34c0-0.1,0-0.2,0.1-0.3C377.9,33.8,377.9,33.9,377.9,34C377.9,34,377.9,34,377.9,34z"/>
		<path class="st0" d="M393.7,9.8C393.6,9.8,393.6,9.8,393.7,9.8C393.6,9.7,393.6,9.7,393.7,9.8L393.7,9.8z"/>
		<path class="st1" d="M388.8,41.9c0.3-2.2,0.7-4.4,1-6.6c0.1-0.6,0.4-1.2,0.6-1.8c0.1-0.5,0.2-1,0.4-1.4c0.1-0.3,0.1-0.7,0.3-1
			c0.9-1.8,1.3-3.6,1.1-5.6c0-0.6,0.1-1.1,0.3-1.7c0.4-1.2,0.7-2.5,0.8-3.8c0.1-0.8,0.3-1.5,0.5-2.4c-0.1-0.1-0.3-0.3-0.5-0.5
			c0-0.1,0-0.3,0.1-0.4c0.9-0.6,1.3-1.6,1.2-2.4c-0.2-0.8,0.5-1.3,0.4-2c-0.1-0.7,0-1.4,0-2.2c-0.4,0.2-0.8,0.4-1.1,0.6
			c0.5,0.6-0.1,0.7-0.4,1.1c0-0.4-0.1-0.5-0.1-0.6c0-0.2,0.2-0.4,0.2-0.6c-0.6-0.3-0.3-0.6,0-0.9c-0.4,0-0.9-0.1-1.4-0.1
			c0.2-0.3,0.4-0.6,0.5-0.9c0,0,0,0,0,0c0,0,0,0,0,0c-0.7,0.3-1.4,0.5-2.1,0.8c-0.6-0.4-1.3-0.9-1.6-1.6c0.5-0.8,1.2-1.3,1.6-1
			c0.6,0.4,1.3,0.4,1.8,0.8c0.2,0.2,0.2,0.6,0.3,1c0,0,0,0,0,0c0,0,0,0,0,0.1c1.5-1.5,1.5-1.8,0.3-3.4c-0.4-0.5-0.7-0.9-1.1-1.3
			c-1.2-0.2-2.4-0.4-3.7-0.6c-0.3,0.3-0.5,0.6-0.8,1c-0.2-0.1-0.5-0.3-0.8-0.5c-0.2,0.2-0.5,0.4-0.8,0.6c-0.3,0.2-0.5,0.4-0.8,0.6
			c0.2,0.3,0.3,0.5,0.5,0.8c-0.2,0.1-0.4,0.2-0.6,0.2c-0.1,0-0.3-0.1-0.4-0.1c-0.1,0-0.3,0-0.5,0c-0.6,0.6-1.3,1.2-2,1.9
			c0.3,1.9-0.8,3.4-1.3,5c-0.3,0.9-0.7,1.9-0.9,2.8c-0.6,2.7-1.2,5.5-1.3,8.3c0,1-0.2,2-0.5,2.9c-0.1,0.6-0.4,1,0.1,1.6
			c0.3,0.3-0.2,0.4-0.3,0.7c-0.6,1-0.4,1.8,0.6,2.8c-0.1,0.5-0.3,1.1-0.4,1.6c0,0,0,0,0,0c0.1-0.1,0.3-0.1,0.5-0.1
			c0,0.1,0,0.4-0.1,0.4c-0.2,0-0.4,0-0.5,0c0,0,0,0,0,0.1c0,0,0,0,0-0.1c0,0,0,0,0,0c-0.6,0.7-1.1,1.5-0.9,2.7
			c0.3-0.3,0.5-0.5,0.7-0.7c0.2-0.1,0.4-0.2,0.5-0.2c0.3,0.1,0.3,0.4,0.2,0.7c-0.3,0.5-0.5,1-0.8,1.6c0.8,0.7,0.4,1.9,1.1,2.7
			c0.1,0.1,0,0.4,0,0.6c-0.3,1.2-0.1,2.3,0.7,3.3c-0.4,0.4-0.7,0.6-0.9,1c-0.2,0.3-0.4,0.7-0.3,0.9c0.5,1,0.2,1.9,0.2,2.9
			c0.5,0.5,1.1,0.9,1.6,1.4c0.2,0.1,0.5,0.2,0.5,0.4c0.4,1.8,2,1.6,3.4,1.8c0.2-0.4,0.6-0.8,0.6-1.2c0-1.1,0.6-1.9,1.3-2.7
			C388.2,46.1,388.2,46,388.8,41.9z M388,10c0,0-0.2,0.1-0.4,0.2c0-0.3,0-0.6,0.1-0.8c0,0,0.1,0,0.2-0.1C387.9,9.5,388,9.8,388,10z
			 M378.5,28.1c0,0-0.1-0.1-0.1-0.1c0,0,0-0.1,0.1-0.1c0.1,0,0.1,0,0.2,0C378.5,28,378.5,28,378.5,28.1z M393,15.9
			c-0.1,0.1-0.2,0.2-0.3,0.3c0,0-0.1-0.1-0.1-0.1c0.1-0.1,0.2-0.2,0.3-0.3C393,15.8,393,15.9,393,15.9z"/>
		<path class="st2" d="M397,60.2c-1.5-0.6-3.1-1.3-4.2-2.6c-0.1-0.1-0.1-0.2-0.2-0.4c0.1-0.3,0.2-0.5,0.2-0.6
			c-1.2-1.1-1.8-2.5-2.8-3.6c1-1,2-1.9,2.9-2.8c0.4-1.9,0.7-3.9,1.3-5.7c0.6-1.9,1.4-3.8,2.1-5.7c0.1-0.3,0.3-0.6,0.6-0.9
			c0.5-0.6,0.8-1.3,1-2c-0.1-0.2-0.1-0.4-0.2-0.5c0.2,0,0.4,0,0.6,0c-0.2-0.9,0.8-0.6,1.1-1.2c-0.5-0.6-0.9-1.2-0.3-2
			c0.4-0.6-0.2-1.6,0.8-2.1c0.1-0.8,0.3-1.7,0.4-2.5c0.1-0.3,0.2-0.7,0.4-1c1.3-2.3,2.7-4.5,3.7-7c0.4-1,1.2-1.8,1.8-2.7
			c0.2-0.3,0.5-0.6,0.8-0.7c1.6-0.6,3.3-1,5-0.9c1.1,0.1,1.8,0.7,2.7,1.3c0.7,0.5,0.6,1.3,0.7,2c0.1,0.6,0.1,1.2,0.1,1.8
			c0,0,0,0,0,0c0-0.1-0.1-0.2-0.1-0.3c0,0-0.1-0.1-0.2-0.1c-0.1,0-0.1,0.1-0.2,0.1c0.1,0.1,0.2,0.1,0.3,0.2c0,0,0.1,0,0.2,0.1
			c0,0,0,0.1,0,0.1c0,0,0,0,0-0.1c0,0,0,0,0,0c0.2,0.1,0.4,0.1,0.3,0.4c-0.3,0.7-0.2,0.7,0.3,0.8c0.3,0,0.5,0,0.8,0.1
			c0.2,1.3-0.1,2.3-1.1,3.1c-0.1,0.1-0.3,0.2-0.4,0.4c-0.3,1-0.7,2-0.8,3.1c-0.2,1.5-0.8,2.9-1.5,4.2c-0.5,0.9-0.8,1.7-0.8,2.6
			c-0.1,1.4-1.1,2.5-1.4,3.8c-0.1,0.4-0.7,0.6-0.8,1c-0.4,1.5-1.7,2.7-2,4.3c-0.1,0.5-0.5,1-0.8,1.5c-0.4,0.6-0.7,1.2-1,1.9
			c-0.3,0.9-0.9,1.6-1.3,2.5c-0.2,0.4-0.5,0.8-0.7,1.3c-0.3,0.6-0.5,1.2-0.9,1.7c-1.3,2.1-2.7,4.2-4.1,6.4
			C398.7,60.3,398,60.6,397,60.2z"/>
		<path class="st3" d="M423.6,59.6c0.7-1.3,1.9-2.4,2.1-4c2.3-2.3,3.1-5.5,5.2-7.9c0.4-0.5,0.4-1.2,0.7-1.8c0.3-0.8,0.8-1.5,0.4-2.4
			c-0.1-0.4,0.2-0.8,0.2-1.3c0.1-0.5,0.1-1,0.3-1.5c0.4-1.7-0.3-2.7-1.7-3.5c-1.1-0.7-2.2-0.6-3.3-0.1c-2,0.9-3.9,1.9-5.4,3.4
			c-1,1-2.4,1.6-2.7,3.2c0,0.2-0.4,0.4-0.6,0.6c-0.9,0.8-0.9,0.8-0.9,2.2c-0.4,0-0.8,0.1-1.2,0.1c-0.5,0.8,0,1.9-1.1,2.3
			c-0.1,0-0.2,0.2-0.3,0.3c-0.6,1.5-1.7,2.3-3.1,2.7c-0.3,0.1-0.6,0.2-0.7,0.5c-0.6,1.3-1.7,2.1-2.5,3.2c-0.7,1-1.3,2.2-1.9,3.3
			c-0.4,0.7-0.4,0.7-1.5,0.4c-0.3,0.4-0.6,0.7-0.8,1.2c0.4,0.5,0.6-0.4,0.6-0.3c0.6,0.4,0.6,0.7,0.3,0.9c-2,2.1-2,2.1-3,4.7
			c0.4-0.3,0.6-0.4,0.9-0.6c0.3-0.2,0.6-0.4,0.9-0.6c0.3,0.7-0.3,0.9-0.6,1.2c-0.5,0.8-0.6,1,0.2,1.6c0.5,0.4,0.2,0.7,0.4,1
			c0.4,0.8,0.9,1.6,1.6,2.1c0.8,0.6,1.7,1.1,2.8,0.7c0.3-0.1,0.7,0,1.2,0c0.2,1.2,1.3,1.5,2.2,2.2c1.1-0.1,2-0.7,2.7-1.5
			c1-1.1,2.2-2.1,2.6-3.6c0.1-0.3,0.3-0.6,0.6-0.9c1.3-1.2,2-2.8,3-4.2c0.2-0.3,0.3-0.8,0.5-1.2c0.1-0.2,0.2-0.5,0.3-0.5
			C423,61.2,423.2,60.3,423.6,59.6z M405.2,62.9c-0.1,0-0.1,0.1-0.2,0.1c0,0,0-0.1,0-0.1C405.1,62.9,405.1,62.9,405.2,62.9z
			 M408,59.6c0-0.1,0.1-0.1,0.1-0.2C408.1,59.4,408.1,59.5,408,59.6C408,59.6,408,59.6,408,59.6C408,59.6,408,59.6,408,59.6
			c-0.1,0.3-0.1,0.5-0.3,0.6c-0.1,0.1-0.3,0.1-0.5,0.1c0-0.1-0.1-0.3-0.1-0.4C407.3,59.7,407.4,59.3,408,59.6
			C407.9,59.6,407.9,59.6,408,59.6z M410.4,56l-0.1,0.2l0-0.2L410.4,56z"/>
		<path class="st4" d="M330.2,46.4c-0.1,0.1-0.2,0.3-0.2,0.3c0.3,0.6-0.1,1.3,0,1.9c0.2,1.9,1.2,3.4,2.9,4.3
			c0.9,0.5,1.6,1.1,2.5,1.6c0.9,0.5,1.7,1,2.6,1.6c0.4,0.3,0.8,0.6,1.3,0.8c2.3,1.5,2.3,1.5,3.6,4.1c1,1.9,1.9,3.9,3.2,5.6
			c0.6,0.8,1.3,1.6,1.9,2.3c0.5,0.5,1,0.8,1.7,0.3c0.5-0.4,0.9,0,1.4,0.3c0.5,0.3,0.9,0.3,1.3-0.2c0.4-0.4,0.9-0.7,1.4-1.1
			c-0.1-1.3,0.5-2.6,1.1-3.8c0.5-0.9,0.7-1.8,0.8-2.9c0.1-0.9,0.4-1.8,0.5-2.7c0-1,0-2-0.2-3c-0.5-1.6-1-3.1-2.3-4.3
			c-0.8-0.8-1.5-1.7-2.2-2.6c-2-2.3-4.5-4-7.3-5.3c-1.4-0.6-2.8-1.1-4.2-1.7c-1.3-0.5-2.7-0.9-4.2-0.7c-0.7,0.1-1.5-0.1-2.3-0.2
			c0,0,0,0,0,0c0.1,0.1,0.3,0.3,0.3,0.4c0,0.1-0.1,0.3-0.2,0.5c0,0-0.2,0-0.2,0c0-0.2,0-0.4,0-0.5c0-0.1,0.1-0.2,0.1-0.3
			c0,0,0,0,0-0.1c0,0,0,0,0.1,0c0,0,0,0,0,0c-0.5-0.3-0.9-0.3-1.3,0.3c-0.3,0.6-0.3,1.4-1.2,1.5c-0.1,0.9-0.1,1.7-0.2,2.5
			c0.2,0.2,0.4,0.5,0.6,0.7C331.1,46.8,330.6,46.4,330.2,46.4z M331.3,45.2l0.1,0l0,0.1L331.3,45.2z M332.4,44
			c-0.1,0.1-0.2,0.1-0.3,0.1c-0.1,0-0.2-0.1-0.3-0.3c0.2,0,0.4,0,0.6,0C332.4,43.9,332.4,44,332.4,44z"/>
		<path class="st5" d="M369.8,28c-0.1-3.2,0-6.4-0.3-9.5c-0.3-3.1-1.7-5.9-4.1-8c-0.9-0.7-1.9-1.5-3.2-1.3c-0.3,0.1-0.8,0-1-0.2
			c-0.7-0.6-1.1,0-1.7,0.3c-0.6,0.3,0.1,1.1-0.5,1.2c-0.6,0.2-0.8,0.5-1,1.1c0.2,0.5,1.5,0.9,0.5,1.9c-0.2-0.1-0.4-0.3-0.6-0.4
			c-0.1,0.1-0.3,0.1-0.3,0.2c-0.2,0.8-0.4,1.6-0.6,2.5c0.2,0.3,0.4,0.7,0.7,1.1c-0.4,0.7-1.1,1.5-0.2,2.4c0.1,0.1-0.3,0.6-0.5,0.9
			c1.6,1.7,1.5,1.7,0.3,4.1c0.3-0.1,0.6-0.2,0.8-0.2c0.1,0,0.3,0.4,0.3,0.5c-0.1,0.3-0.3,0.6-0.6,0.9c0.3,0.2,0.6,0.5,0.9,0.7
			c-1,1.2-1,1.3,0.5,2.5c-0.7,1.1-0.4,2.1,0,3.2c0.9,0.3,0.4,1.2,0.7,1.7c0.4,0.6,0.7,1.2,0.6,2c0,0.2,0.5,0.5,0.6,0.8
			c0.1,0.8,0,1.6,0.3,2.3c0.2,0.6,1,1,1.2,1.7c0.3,1.1,0.5,2.3,0.9,3.4c0.4,0.9,0.9,1.8,1.3,2.7c0.1,0.2,0.4,0.5,0.6,0.6
			c1,0.4,1.8,1,2.6,1.7c0.6,0.5,1.2,0.4,1.7-0.2c0.6-0.8,1.4-1.5,0.9-2.7c0.2-1.9-0.1-3.7-0.4-5.5c0-0.2-0.1-0.4-0.1-0.6
			c0.5-2.5-0.4-4.8-0.4-7.2C369.8,31,369.9,29.5,369.8,28z M361.2,10.4c0,0-0.1,0-0.2,0.1c0-0.1,0-0.3,0-0.4c0,0,0.2,0,0.3,0
			C361.3,10.2,361.2,10.3,361.2,10.4z"/>
		<path class="st0" d="M393.6,9.8C393.7,9.8,393.6,9.7,393.6,9.8C393.6,9.7,393.6,9.7,393.6,9.8C393.6,9.7,393.6,9.7,393.6,9.8z"/>
		<path class="st0" d="M394,9.3c0,0.1,0,0.2,0,0.2c-0.1,0.1-0.2,0.1-0.3,0.2c0-0.1,0-0.2,0-0.3C393.7,9.3,393.9,9.3,394,9.3z"/>
	</g>
	<g>
		<g>
			<path class="st6" d="M57.3,178.6c0,3.6-2.3,6.1-5.5,6.1c-3.6,0-5.3-3.1-5.3-5.7c0-1.3,0.4-2.7,1.2-3.7c-0.7-0.2-1.3-0.6-1.8-1
				c-2.6-2-3.5-5.7-3.5-8c0-4.5,3.3-8.9,8.5-8.9c0.5,0,1.3,0,2.1,0.1l2,0.2h2.2L57.3,178.6L57.3,178.6z M50.8,159.9
				c-3.7,0-5.8,3.3-5.8,6.6c0,3.2,1.9,6.5,4.8,6.5c0.6,0,1.1-0.1,1.6-0.3c0.9-0.4,2.2-1.4,2.9-2.7c0.2-0.4,0.3-0.9,0.3-1.2v-8.7
				l-2.8-0.2H50.8z M54.7,173.4c-0.2,0.2-0.6,0.5-0.9,0.8c-0.7,0.6-1.2,0.8-3.1,1.9c-1.4,0.8-1.7,1.9-1.7,2.8c0,1.6,1,3.1,2.9,3.1
				c1.8,0,2.6-1.5,2.7-3.4L54.7,173.4L54.7,173.4z"/>
			<path class="st6" d="M83.8,173.7c-0.6,1.3-1.9,1.9-3,1.9c-1.4,0-2.6-0.9-3.2-2.1c-1.2,1.5-3,2.1-4.9,2.1c-5,0-7.6-4.3-7.6-9
				c0-5.3,3.3-9.2,8.6-9.2c1,0,2.8,0.1,4.1,0.3H80v14.5c0,0.5,0.4,0.8,0.8,0.8c0.4,0,0.6-0.2,0.8-0.7L83.8,173.7z M77.3,160.2
				c-1.1-0.1-2.8-0.3-3.8-0.3c-3.7,0-5.7,2.9-5.7,6.6c0,3.4,1.6,6.5,4.9,6.5c2,0,3.5-1,4.2-2.5c0.3-0.6,0.4-1.2,0.4-1.9V160.2z"/>
			<path class="st6" d="M90.8,157.3c1,0.7,1.6,1.5,2,2.5c0.5-0.7,1.1-1.3,1.7-1.7c0.9-0.6,2-0.8,3.1-0.8c0.5,0,0.8,0.1,2.4,0.3v2.6
				c-1.2-0.3-1.8-0.3-2.3-0.3c-1.2,0-1.9,0.2-2.6,0.8c-0.6,0.4-1.3,1.2-1.8,2.2v12.3h-2.7V163c0-1.9-0.5-3.1-1.5-4L90.8,157.3z"/>
			<path class="st6" d="M119.5,172.1c0,0.4,0.4,0.8,0.8,0.8c0.4,0,0.5-0.1,0.8-0.7l2.2,1.5c-0.6,1.3-1.9,1.9-3,1.9
				c-1.4,0-2.6-0.9-3.2-2.1c-1.2,1.5-3,2.1-4.9,2.1c-4.9,0-7.6-4.3-7.6-9c0-5.3,3.3-9.2,8.6-9.2c0.9,0,2.5,0.1,3.6,0.3V150h2.7
				L119.5,172.1L119.5,172.1z M116.9,160.2c-0.7-0.1-1.6-0.3-2.9-0.3c-4.9,0-6.6,2.7-6.6,6.4c0,3.7,1.6,6.7,4.9,6.7
				c1.9,0,3.4-0.9,4.2-2.5c0.3-0.6,0.4-1.2,0.4-1.9V160.2z"/>
			<path class="st6" d="M143.4,173.3c-1.8,1.3-4.2,2.2-6.8,2.2c-5.4,0-7.9-3.8-7.9-8.4c0-4.4,2.2-9.8,7.8-9.8c3.4,0,6.4,2.2,6.4,5.6
				c0,3.6-3.2,5.6-7.8,5.6h-3.5c0.5,2.9,2.1,4.5,5.1,4.5c2.1,0,3.7-0.8,5.5-1.7L143.4,173.3z M135.1,166c3,0,5.1-0.8,5.1-3
				c0-2.1-1.7-3.1-3.6-3.1c-3.5,0-5,3.6-5.2,6.2H135.1z"/>
			<path class="st6" d="M151.9,157.3c1,0.7,1.6,1.5,2,2.5c0.5-0.7,1.1-1.3,1.7-1.7c0.9-0.6,2-0.8,3.1-0.8c0.5,0,0.8,0.1,2.4,0.3v2.6
				c-1.2-0.3-1.8-0.3-2.3-0.3c-1.2,0-1.9,0.2-2.6,0.8c-0.6,0.4-1.3,1.2-1.8,2.2v12.3h-2.7V163c0-1.9-0.5-3.1-1.5-4L151.9,157.3z"/>
			<path class="st6" d="M169.9,152.3c0,0.9-0.9,1.8-1.9,1.8c-0.9,0-1.8-0.9-1.8-1.8c0-1,0.9-1.8,1.8-1.8
				C169,150.4,169.9,151.3,169.9,152.3z M169.5,172.1c0,0.4,0.4,0.8,0.8,0.8c0.3,0,0.6-0.1,0.8-0.7l2.3,1.5c-0.6,1.1-1.8,1.9-3,1.9
				c-1.9,0-3.4-1.6-3.4-3.4v-14.5h2.7L169.5,172.1L169.5,172.1z"/>
			<path class="st6" d="M192.9,173.3c-1.8,1.3-4.2,2.2-6.8,2.2c-5.4,0-7.9-3.8-7.9-8.4c0-4.4,2.2-9.8,7.8-9.8c3.4,0,6.4,2.2,6.4,5.6
				c0,3.6-3.2,5.6-7.8,5.6H181c0.5,2.9,2.1,4.5,5.1,4.5c2.1,0,3.7-0.8,5.5-1.7L192.9,173.3z M184.5,166c3,0,5.1-0.8,5.1-3
				c0-2.1-1.7-3.1-3.6-3.1c-3.5,0-5,3.6-5.2,6.2H184.5z"/>
			<path class="st6" d="M200.6,165.9v-2.7h10.8v2.7H200.6z"/>
			<path class="st6" d="M234.2,172.1c0,0.4,0.4,0.8,0.8,0.8c0.4,0,0.5-0.1,0.8-0.7l2.2,1.5c-0.6,1.3-1.9,1.9-3,1.9
				c-1.4,0-2.6-0.9-3.2-2.1c-1.2,1.5-3,2.1-4.9,2.1c-4.9,0-7.6-4.3-7.6-9c0-5.3,3.3-9.2,8.6-9.2c0.9,0,2.5,0.1,3.6,0.3V150h2.7
				L234.2,172.1L234.2,172.1z M231.5,160.2c-0.7-0.1-1.6-0.3-2.9-0.3c-4.9,0-6.6,2.7-6.6,6.4c0,3.7,1.6,6.7,4.9,6.7
				c1.9,0,3.4-0.9,4.2-2.5c0.3-0.6,0.4-1.2,0.4-1.9V160.2z"/>
			<path class="st6" d="M262,173.7c-0.6,1.3-1.9,1.9-3,1.9c-1.4,0-2.6-0.9-3.2-2.1c-1.2,1.5-3,2.1-4.9,2.1c-5,0-7.6-4.3-7.6-9
				c0-5.3,3.3-9.2,8.6-9.2c1,0,2.8,0.1,4.1,0.3h2.2v14.5c0,0.5,0.4,0.8,0.8,0.8c0.4,0,0.6-0.2,0.8-0.7L262,173.7z M255.6,160.2
				c-1.1-0.1-2.8-0.3-3.8-0.3c-3.7,0-5.7,2.9-5.7,6.6c0,3.4,1.6,6.5,4.9,6.5c2,0,3.5-1,4.2-2.5c0.3-0.6,0.4-1.2,0.4-1.9V160.2z"/>
			<path class="st6" d="M282.8,178.7c0,3.8-2.4,6.1-5.4,6.1c-3.5,0-5.4-2.9-5.4-5.6c0-1.2,0.4-2.8,1.2-3.8c-2.7-0.6-4.2-2.4-4.2-5.2
				v-8.4c0-0.9-1.8-2.4-2-2.3l1.5-2.3c1.6,1.2,3.2,2.5,3.2,4.6v7.5c0,2.5,1,3.6,3.3,3.6c2.1,0,3.4-1,4.7-2.6v0
				c0.4-0.6,0.4-0.8,0.4-1.3v-11.5h2.6L282.8,178.7L282.8,178.7z M277,175.7c-1.6,0.9-2.3,1.7-2.3,3.4c0,1.8,1,3.1,2.7,3.1
				c1.8,0,2.8-1.3,2.8-3.3v-5.1c-0.5,0.4-1,0.8-1.6,1.1L277,175.7z"/>
			<path class="st6" d="M305.4,173.2c-2.1,1.5-4.4,2.2-6.7,2.2c-5.3,0-8-3.5-8-8.6c0-5.3,2.9-9.6,7.7-9.6c3.4,0,6.7,2.3,6.4,5.9
				h-2.7c0.2-2.3-1.5-3.5-3.6-3.5c-3.6,0-5.2,3.8-5.2,7.2c0,3.8,1.9,6,5.3,6c2,0,3.7-0.8,5.4-1.8L305.4,173.2z"/>
			<path class="st6" d="M330.6,173.7c-0.6,1.3-1.9,1.9-3,1.9c-1.4,0-2.6-0.9-3.2-2.1c-1.2,1.5-3,2.1-4.9,2.1c-5,0-7.6-4.3-7.6-9
				c0-5.3,3.3-9.2,8.6-9.2c1,0,2.8,0.1,4.1,0.3h2.2v14.5c0,0.5,0.4,0.8,0.8,0.8c0.4,0,0.6-0.2,0.8-0.7L330.6,173.7z M324.1,160.2
				c-1.1-0.1-2.8-0.3-3.8-0.3c-3.7,0-5.7,2.9-5.7,6.6c0,3.4,1.6,6.5,4.9,6.5c2,0,3.5-1,4.2-2.5c0.3-0.6,0.4-1.2,0.4-1.9V160.2z"/>
			<path class="st6" d="M337.6,157.3c1,0.7,1.6,1.5,2,2.5c0.5-0.7,1.1-1.3,1.7-1.7c0.9-0.6,2-0.8,3.1-0.8c0.5,0,0.8,0.1,2.4,0.3v2.6
				c-1.2-0.3-1.8-0.3-2.3-0.3c-1.2,0-1.9,0.2-2.6,0.8c-0.6,0.4-1.3,1.2-1.8,2.2v12.3h-2.7V163c0-1.9-0.5-3.1-1.5-4L337.6,157.3z"/>
			<path class="st6" d="M366.2,173.3c-1.8,1.3-4.2,2.2-6.8,2.2c-5.4,0-7.9-3.8-7.9-8.4c0-4.4,2.2-9.8,7.8-9.8c3.4,0,6.4,2.2,6.4,5.6
				c0,3.6-3.2,5.6-7.8,5.6h-3.5c0.5,2.9,2.1,4.5,5.1,4.5c2.1,0,3.7-0.8,5.5-1.7L366.2,173.3z M357.8,166c3,0,5.1-0.8,5.1-3
				c0-2.1-1.7-3.1-3.6-3.1c-3.5,0-5,3.6-5.2,6.2H357.8z"/>
		</g>
	</g>
	<path class="st7" d="M95.1,55.9c-2.5-1.4-4.6-3.3-6.1-5.8c-1.6-2.5-2.4-5.1-2.4-7.9c0-4.4,1.7-8,5-10.9c3.3-2.9,7.3-4.4,11.9-4.4
		c4.4,0,7.9,1.3,10.6,4c2.7,2.6,4,6.1,4,10.5c0,4.8-1.5,8.8-4.4,12c-2.9,3.1-6.6,4.7-10.9,4.7C100.1,58,97.6,57.3,95.1,55.9z
		 M87.9,63.2h28.5v72.4H90.1L87.9,63.2z"/>
	<path class="st8" d="M311.6,67.2c4.6,3.6,8.3,8.3,11.1,14c2.8,5.7,4.2,11.7,4.2,17.9c0,6.7-1.4,13-4.1,18.8
		c-2.7,5.8-6.4,10.4-11.1,13.9c-4.6,3.4-9.6,5.1-15,5.1c-4.4,0-8.7-0.8-13-2.3c-4.3-1.5-7.8-3.6-10.7-6v7.6h-26.6V28.1l27.3-2.2
		l-0.3,42.3c6.2-4.6,14.1-6.8,23.6-6.6C302.2,61.8,307,63.6,311.6,67.2z M295.1,111.6c2.2-1.4,4-3.3,5.3-5.5c1.3-2.3,2-4.6,2-7.1
		c0-3.9-1.4-7.3-4.3-10.2c-2.9-2.9-6.2-4.3-9.9-4.3c-3.9,0-7.4,1.4-10.3,4.3c-3,2.9-4.4,6.2-4.4,10c0,2.5,0.7,4.8,2.1,7.2
		c1.4,2.3,3.3,4.2,5.5,5.6c2.3,1.4,4.6,2.1,7.1,2.1C290.5,113.7,292.8,113,295.1,111.6z"/>
	<path class="st9" d="M236.6,136h-26.5l-0.1-38c0-5-0.6-8.5-1.7-10.4c-1.1-1.9-3.2-2.9-6.2-2.9c-2.3,0-4.1,1.4-5.5,4.2
		c-1.4,2.8-2.1,6.3-2.1,10.6l0.1,2.6l-0.1-0.4v33.9l-25.7,0.3L168.4,98c0-4.2-0.8-7.4-2.3-9.8c-1.5-2.3-3.7-3.5-6.6-3.5
		c-2.9,0-5.1,1.2-6.7,3.7c-1.5,2.5-2.3,6-2.3,10.5l0.1,2.9l-0.1-0.3l1.1,34.5H126v-72l23.5-0.8l0.1,5.5c2.4-1.8,5.3-3.2,8.7-4.2
		c3.4-1,7.1-1.5,11.1-1.5c8.4,0,14.7,2.1,19,6.4c2.3-2.5,5.3-4.4,9-5.5c3.7-1.1,8.6-1.6,14.6-1.6c8.5,0,14.6,3.3,18.5,10
		c3.9,6.7,5.8,17.5,5.9,32.4L236.6,136z"/>
	<path class="st10" d="M59.4,78.9c4,0,7.6,1.1,10.9,3.4c3.2,2.3,5.8,5.4,7.7,9.5c1.9,4.1,2.9,8.6,2.9,13.6
		c0,10.4-4.6,18.1-13.9,23.1c-9.3,5.1-23.5,7.6-42.7,7.6H3.4l0.5-99.4c3.3-2,8.3-3.4,15.1-4.2c6.8-0.8,13.2-1.2,19.3-1.2
		c5.6,0,11.1,1.1,16.3,3.3c5.2,2.2,9.4,5.1,12.6,8.9c3.2,3.7,4.8,7.9,4.8,12.4c0,5.6-1.4,10.6-4.3,15c-2.9,4.5-6.6,7.1-11.3,8.1
		C57.2,78.9,58.1,78.9,59.4,78.9z M43.9,54.3c-2-1.5-4.5-2.3-7.6-2.3c-2.3,0-4.4,0.5-6.4,1.5v15.6c1.1,0.4,2.4,0.5,4,0.5
		c3.4,0,6.4-0.9,9-2.7c2.6-1.8,4-4,4-6.6C46.8,57.9,45.8,55.9,43.9,54.3z M46.9,110.3c3.1-2.4,4.7-5.3,4.7-8.7
		c0-2.8-1.2-5.1-3.6-6.8c-2.4-1.7-5.3-2.6-8.7-2.6c-3.5,0-6.6,0.8-9.4,2.3v18.3c1.7,0.7,3.6,1.1,5.6,1.1
		C39.9,113.8,43.7,112.7,46.9,110.3z"/>
	<path class="st11" d="M354.2,131.2c-5.9-3.6-10.6-8.3-14-14.3c-3.4-6-5.1-12.3-5.1-19.1c0-7.5,1.9-13.9,5.8-19.4
		c3.9-5.5,8.7-9.6,14.6-12.4c5.9-2.8,11.8-4.2,17.8-4.2c7.8,0,14.7,1.5,20.5,4.4c5.8,3,10.3,7.2,13.5,12.6
		c3.2,5.5,4.8,11.8,4.8,19.1c0,7.2-1.7,13.7-5.1,19.6c-3.4,5.9-8,10.5-13.9,13.9c-5.9,3.4-12.4,5.1-19.5,5.1
		C366.7,136.5,360.1,134.7,354.2,131.2z M384.1,109.6c2.5-2.5,3.8-5.8,3.8-10.1c0-4.1-1.2-7.6-3.6-10.4c-2.4-2.8-5.9-4.2-10.5-4.2
		c-4.1,0-7.5,1.4-10.2,4.1c-2.7,2.7-4,6.1-4,10.1c0,4.1,1.4,7.5,4.2,10.2c2.8,2.7,6.4,4,10.8,4C378.4,113.3,381.6,112.1,384.1,109.6
		z"/>
</g>
</svg>
